<?xml version="1.0" encoding="UTF-8" ?>
<svg version="1.1" xmlns="http://www.w3.org/2000/svg" xmlns:xlink="http://www.w3.org/1999/xlink" x="0px" y="0px" viewBox="0 0 30 30" enable-background="new 0 0 30 30" xml:space="preserve">
    <g id="surface13434629">
        <path style="fill-rule:nonzero;fill:rgb(0%,0%,0%);fill-opacity:1;stroke-width:40;stroke-linecap:butt;stroke-linejoin:round;stroke:rgb(100%,100%,100%);stroke-opacity:1;stroke-miterlimit:10;" d="M 143.457117 8.667379 L 150.922394 60.988129 C 151.432841 64.593156 148.944415 68.102475 145.339387 68.644824 C 141.73436 69.155271 138.416459 66.634942 137.87411 63.061817 L 130.249317 10.54965 C 129.738871 6.91272 132.227297 3.594818 135.832324 3.116275 C 139.437352 2.573926 142.94667 5.094255 143.457117 8.667379 Z M 102.5257 19.833393 L 131.49353 64.30603 C 133.47151 67.368708 132.70584 71.388473 129.611259 73.398356 C 126.580484 75.376335 122.528816 74.578763 120.518934 71.516085 L 91.583007 27.07535 C 89.605027 24.012672 90.4026 19.961004 93.433375 17.983025 C 94.230947 17.504481 95.060423 17.121646 95.921801 16.962132 C 98.44213 16.483589 101.026264 17.568287 102.5257 19.833393 Z M 71.930823 45.898059 L 115.350665 75.854879 C 118.349537 77.928567 119.115207 82.171652 117.009615 85.170525 C 114.935927 88.137494 110.884259 88.903164 107.91729 86.829475 L 64.30603 56.649335 C 61.307158 54.543744 60.573392 50.555882 62.64708 47.55701 C 63.667972 46.057574 65.29502 44.972875 66.985874 44.653846 C 68.644824 44.334817 70.431387 44.845264 71.930823 45.898059 Z M 53.746172 76.269617 L 104.407971 91.168269 C 107.885387 92.189162 109.990978 95.953704 108.938183 99.431119 C 107.91729 102.940438 104.152748 104.822709 100.675332 103.769913 L 50.013533 88.903164 C 46.536117 87.850368 44.462429 84.117729 45.483321 80.640313 C 46.248991 77.992373 48.514097 76.365325 51.066328 76.078199 C 51.927707 75.982491 52.884793 76.014393 53.746172 76.269617 Z M 26.469195 105.843602 L 26.469195 152.166607 C 26.469195 155.803538 29.436165 158.770507 33.073095 158.770507 L 112.447501 158.770507 C 116.116334 158.770507 119.083304 155.803538 119.083304 152.166607 L 119.083304 105.843602 L 132.323006 105.843602 L 132.323006 152.166607 C 132.323006 163.109301 123.422098 172.010209 112.447501 172.010209 L 33.073095 172.010209 C 22.130401 172.010209 13.229493 163.109301 13.229493 152.166607 L 13.229493 105.843602 Z M 99.845857 111.841346 C 103.482787 112.192278 106.194533 115.446373 105.843602 119.083304 C 105.49267 122.720234 102.238574 125.43198 98.601644 125.081048 L 45.898059 119.912779 C 42.261129 119.529944 39.549383 116.307752 39.900315 112.670821 C 40.251246 109.065794 43.505342 106.322145 47.142272 106.673077 Z M 99.239702 132.323006 C 102.876632 132.323006 105.843602 135.289975 105.843602 138.926905 C 105.843602 142.563835 102.876632 145.530805 99.239702 145.530805 L 46.312797 145.530805 C 42.675867 145.530805 39.676994 142.563835 39.676994 138.926905 C 39.676994 135.289975 42.675867 132.323006 46.312797 132.323006 Z M 99.239702 132.323006 " transform="matrix(0.122442,0,0,0.122442,2.47,2.47)" />
        <path style=" stroke:none;fill-rule:nonzero;fill:rgb(0%,0%,0%);fill-opacity:1;" d="M 19.101562 2.851562 C 18.660156 2.910156 18.355469 3.316406 18.417969 3.761719 L 19.351562 10.191406 C 19.417969 10.628906 19.824219 10.9375 20.265625 10.875 C 20.707031 10.808594 21.011719 10.378906 20.949219 9.9375 L 20.035156 3.53125 C 19.972656 3.09375 19.542969 2.785156 19.101562 2.851562 Z M 14.214844 4.546875 C 14.109375 4.566406 14.007812 4.613281 13.910156 4.671875 C 13.539062 4.914062 13.441406 5.410156 13.683594 5.785156 L 17.226562 11.226562 C 17.472656 11.601562 17.96875 11.699219 18.339844 11.457031 C 18.71875 11.210938 18.8125 10.71875 18.570312 10.34375 L 15.023438 4.898438 C 14.839844 4.621094 14.523438 4.488281 14.214844 4.546875 Z M 10.671875 7.9375 C 10.464844 7.976562 10.265625 8.109375 10.140625 8.292969 C 9.886719 8.660156 9.976562 9.148438 10.34375 9.40625 L 15.683594 13.101562 C 16.046875 13.355469 16.542969 13.261719 16.796875 12.898438 C 17.054688 12.53125 16.960938 12.011719 16.59375 11.757812 L 11.277344 8.089844 C 11.09375 7.960938 10.875 7.898438 10.671875 7.9375 Z M 8.722656 11.785156 C 8.410156 11.820312 8.132812 12.019531 8.039062 12.34375 C 7.914062 12.769531 8.167969 13.226562 8.59375 13.355469 L 14.796875 15.175781 C 15.222656 15.304688 15.683594 15.074219 15.808594 14.644531 C 15.9375 14.21875 15.679688 13.757812 15.253906 13.632812 L 9.050781 11.808594 C 8.945312 11.777344 8.828125 11.773438 8.722656 11.785156 Z M 4.089844 15.429688 L 4.089844 21.101562 C 4.089844 22.441406 5.179688 23.53125 6.519531 23.53125 L 16.238281 23.53125 C 17.582031 23.53125 18.671875 22.441406 18.671875 21.101562 L 18.671875 15.429688 L 17.050781 15.429688 L 17.050781 21.101562 C 17.050781 21.546875 16.6875 21.910156 16.238281 21.910156 L 6.519531 21.910156 C 6.074219 21.910156 5.710938 21.546875 5.710938 21.101562 L 5.710938 15.429688 Z M 8.242188 15.53125 C 7.796875 15.488281 7.398438 15.824219 7.355469 16.265625 C 7.3125 16.710938 7.644531 17.105469 8.089844 17.152344 L 14.542969 17.785156 C 14.988281 17.828125 15.386719 17.496094 15.429688 17.050781 C 15.472656 16.605469 15.140625 16.207031 14.695312 16.164062 Z M 8.140625 18.671875 C 7.695312 18.671875 7.328125 19.035156 7.328125 19.480469 C 7.328125 19.925781 7.695312 20.289062 8.140625 20.289062 L 14.621094 20.289062 C 15.066406 20.289062 15.429688 19.925781 15.429688 19.480469 C 15.429688 19.035156 15.066406 18.671875 14.621094 18.671875 Z M 8.140625 18.671875 " />
    </g>
</svg>